<svg width="123" height="73" viewBox="0 0 123 73" fill="none" xmlns="http://www.w3.org/2000/svg">
<path d="M58.45 35.2406C58.2313 35.8969 58.5157 36.6187 59.1063 36.9469C61.3813 38.15 62.2563 40.9281 61.1188 43.2687L59.8938 45.7406C59.792 45.9541 59.644 46.1424 59.4606 46.2919L61.1188 47.1953C62.2344 47.8078 62.7375 49.0766 62.3657 50.2359L58.1219 63.7547C57.75 64.9359 56.6125 65.6797 55.3875 65.5266L50.5991 64.9884L50.5663 65.0934C50.3016 65.9211 49.7218 66.6113 48.9522 67.015C48.1826 67.4186 47.2852 67.5031 46.4538 67.2503L46.445 67.2481L42.2232 65.9356L42.2122 65.9334C41.3844 65.6683 40.6943 65.0879 40.2911 64.3179C39.8879 63.5479 39.804 62.6501 40.0575 61.8187L40.0597 61.8078L46.4691 41.3109L46.4713 41.3044C46.7365 40.477 47.3164 39.7872 48.0858 39.3836C48.8552 38.9801 49.7524 38.8953 50.5838 39.1475L50.5947 39.1497L54.8166 40.4622L54.8253 40.4644C55.5289 40.689 56.1369 41.1429 56.5525 41.7535C56.968 42.364 57.167 43.0962 57.1178 43.8331L58.146 41.7834C58.496 41.0834 58.1897 40.2741 57.5116 39.9022C55.521 38.8084 54.5803 36.4241 55.2803 34.2366C55.9147 32.2459 56.2428 30.1459 56.2428 28.0241V27.9803C56.2428 25.5522 55.5866 23.1678 54.3616 21.0897C52.4484 17.8298 49.7155 15.1273 46.4344 13.2508C43.1533 11.3742 39.4383 10.3889 35.6585 10.3928C27.6741 10.3928 20.7178 14.6803 16.9335 21.0897C15.7085 23.1678 15.0522 25.5522 15.0522 27.9803V28.0241C15.0522 30.1459 15.3803 32.2459 16.0147 34.2366C16.7366 36.4459 15.796 38.8084 13.7835 39.9022C13.1053 40.2741 12.7991 41.0834 13.1491 41.7834L14.1028 43.6931C14.0854 42.979 14.2998 42.2785 14.7138 41.6964C15.1279 41.1143 15.7194 40.6821 16.3997 40.4644L16.4107 40.4622L20.6413 39.1475C22.3497 38.6312 24.2244 39.5566 24.7582 41.3153L31.1697 61.8187C31.4225 62.6501 31.338 63.5476 30.9344 64.3172C30.5308 65.0867 29.8405 65.6665 29.0128 65.9312L29.0041 65.9356L24.7735 67.2503C23.9421 67.5031 23.0446 67.4186 22.275 67.015C21.5055 66.6113 20.9257 65.9211 20.661 65.0934L20.6566 65.0869L20.626 64.9884L15.8375 65.5244C14.6125 65.6775 13.475 64.9337 13.1032 63.7525L8.8594 50.2337C8.5094 49.0744 9.01253 47.8056 10.1063 47.1931L11.806 46.27C11.6341 46.1249 11.4947 45.9453 11.3969 45.7428L10.1719 43.2709C9.01253 40.9522 9.9094 38.1959 12.1844 36.9709C12.775 36.6647 13.0594 35.9428 12.8407 35.2647C11.5104 31.1316 11.3435 26.7121 12.3583 22.4905C13.3731 18.2689 15.5304 14.4081 18.5938 11.3312C23.1219 6.75937 29.1813 4.30937 35.6125 4.375H35.6563C42.0438 4.30937 48.0157 6.71562 52.5438 11.1781C57.0938 15.6406 59.5875 21.6344 59.5875 28C59.5875 30.4719 59.1938 32.9 58.45 35.2406ZM48.556 41.9694V41.9716L42.1488 62.4553C41.9738 63.0459 42.2953 63.6584 42.8772 63.8487L47.0882 65.1569C47.6788 65.3319 48.2935 65.0125 48.4838 64.4284V64.4262L54.8888 43.9425C54.9747 43.6611 54.9465 43.3572 54.8102 43.0965C54.6739 42.8357 54.4404 42.6391 54.1603 42.5491L49.9494 41.2409C49.668 41.155 49.3641 41.1832 49.1034 41.3195C48.8426 41.4558 48.646 41.6893 48.556 41.9694ZM22.6669 41.9541C22.5757 41.6759 22.3784 41.445 22.1179 41.3115C21.8574 41.1779 21.5547 41.1526 21.2757 41.2409L17.0647 42.5491C16.7846 42.6391 16.5512 42.8357 16.4149 43.0965C16.2786 43.3572 16.2503 43.6611 16.3363 43.9425L22.7413 64.4262V64.4284C22.8313 64.709 23.0283 64.9429 23.2895 65.0792C23.5508 65.2156 23.8552 65.2435 24.1369 65.1569L28.3478 63.8487C28.6279 63.7587 28.8614 63.5621 28.9977 63.3013C29.134 63.0406 29.1622 62.7367 29.0763 62.4553L22.6691 41.965L22.6669 41.9541Z" fill="white"/>
<path d="M93.225 45.4188L100.5 52.6938L107.775 45.4188C107.949 45.2452 108.155 45.1075 108.381 45.0135C108.608 44.9196 108.851 44.8712 109.097 44.8712C109.342 44.8712 109.585 44.9196 109.812 45.0135C110.039 45.1075 110.245 45.2452 110.419 45.4188C110.592 45.5923 110.73 45.7984 110.824 46.0252C110.918 46.252 110.966 46.4951 110.966 46.7406C110.966 46.9861 110.918 47.2292 110.824 47.456C110.73 47.6828 110.592 47.8889 110.419 48.0625L101.812 56.6688C101.639 56.8426 101.433 56.9805 101.206 57.0746C100.979 57.1687 100.736 57.2171 100.491 57.2171C100.245 57.2171 100.002 57.1687 99.7751 57.0746C99.5482 56.9805 99.3422 56.8426 99.1687 56.6688L90.5625 48.0625C90.3887 47.889 90.2508 47.683 90.1567 47.4562C90.0626 47.2294 90.0142 46.9862 90.0142 46.7406C90.0142 46.4951 90.0626 46.2519 90.1567 46.0251C90.2508 45.7983 90.3887 45.5922 90.5625 45.4188C91.2937 44.7063 92.4937 44.6875 93.225 45.4188V45.4188Z" fill="white"/>
</svg>
